<svg width="602" height="155" viewBox="0 0 602 155" fill="none" xmlns="http://www.w3.org/2000/svg">
<mask id="mask0_2_123" style="mask-type:alpha" maskUnits="userSpaceOnUse" x="0" y="102" width="147" height="53">
<path d="M0.56601 102.115H146.714V154.936H0.56601V102.115Z" fill="white"/>
</mask>
<g mask="url(#mask0_2_123)">
<path fill-rule="evenodd" clip-rule="evenodd" d="M73.4987 128.999C68.349 128.999 63.5634 127.977 59.6574 126.043L17.5961 105.224L4.99237 112.395C-0.998559 115.802 -0.893914 121.025 5.22581 124.055L63.4004 152.852C66.2259 154.249 69.8381 154.937 73.4987 154.937C77.773 154.937 82.1098 154.001 85.3377 152.166L142.289 119.764C148.28 116.355 148.175 111.132 142.055 108.104L129.961 102.115L89.4973 125.137C85.1183 127.626 79.4373 128.999 73.4987 128.999Z" fill="url(#paint0_linear_2_123)"/>
</g>
<path fill-rule="evenodd" clip-rule="evenodd" d="M142.429 73.6267L132.33 68.554L108.814 82.1289L104.776 84.4589L100.741 86.7889L89.7323 93.1444C85.3417 95.6807 79.6437 97.0753 73.6914 97.0753C68.5281 97.0753 63.7299 96.0356 59.8136 94.0702L47.2008 87.734L43.0262 85.6394L38.8515 83.5427L15.6114 71.8676L5.00431 77.9916C-1.00243 81.4596 -0.89953 86.7716 5.23635 89.8538L17.3648 95.945L21.5395 98.0416L25.7121 100.138L63.5665 119.151C66.3974 120.572 70.0212 121.27 73.6914 121.27C77.975 121.27 82.3252 120.319 85.5596 118.452L121.953 97.4437L125.991 95.1137L130.026 92.7837L142.663 85.4889C148.67 82.0228 148.565 76.709 142.429 73.6267Z" fill="url(#paint1_linear_2_123)"/>
<path fill-rule="evenodd" clip-rule="evenodd" d="M142.429 42.5484L84.0988 13.763C81.268 12.3643 77.6461 11.6782 73.9739 11.6782C69.6903 11.6782 65.3401 12.6145 62.1057 14.4491L5.00431 46.8393C-1.00243 50.2451 -0.89953 55.4647 5.23635 58.4934L15.335 63.4779L19.5097 65.5381L23.6843 67.5982L46.9244 79.0684L51.099 81.1267L55.2737 83.1888L63.5665 87.2825C66.3974 88.6794 70.0212 89.3654 73.6914 89.3654C77.975 89.3654 82.3252 88.4292 85.5596 86.5946L92.3916 82.7187L96.4291 80.4292L100.465 78.1397L123.981 64.8008L128.018 62.5113L132.054 60.2218L142.663 54.2044C148.67 50.7985 148.565 45.5771 142.429 42.5484Z" fill="url(#paint2_linear_2_123)"/>
<mask id="mask1_2_123" style="mask-type:alpha" maskUnits="userSpaceOnUse" x="189" y="0" width="84" height="150">
<path d="M189.143 0.270508H272.569V149.977H189.143V0.270508Z" fill="#071927"/>
</mask>
<g mask="url(#mask1_2_123)">
<path fill-rule="evenodd" clip-rule="evenodd" d="M249.915 23.4605C242.256 23.1744 235.801 28.7614 235.496 35.9432C235.496 35.9679 235.494 35.9889 235.494 36.0137V48.5689H266.392V69.8184H235.494V149.977H207.682V69.8184H189.144V48.5689H207.682V34.0662C207.682 13.7857 226.222 0.27866 246.821 0.27866C256.256 0.0898177 265.43 3.18759 272.57 8.97113L262.271 27.3194C258.564 25.0742 254.313 23.7428 249.911 23.4548" fill="#071927"/>
</g>
<path fill-rule="evenodd" clip-rule="evenodd" d="M385.651 47.6541V149.34H364.323L360.257 137.723H357.223C353.159 142.564 344.021 150.312 325.737 150.312C297.298 150.312 283.076 130.942 283.076 102.855V47.6541H312.543V96.0748C312.543 108.664 313.556 126.097 331.844 126.097C340.986 126.097 356.222 121.254 356.222 95.1108V47.6541H385.651Z" fill="#071927"/>
<path fill-rule="evenodd" clip-rule="evenodd" d="M441.933 68.1664C432.667 68.1664 428.553 72.0556 428.553 76.9204C428.553 83.7288 437.818 85.6725 445.021 87.6142C464.576 91.5053 484.129 97.3381 484.129 118.728C484.129 140.119 465.604 151.792 442.959 151.792C418.257 151.792 398.704 137.205 397.673 115.812H424.431C425.443 124.593 433.633 131.038 442.955 130.397C454.276 130.397 456.335 124.564 456.335 120.675C456.335 112.895 449.131 110.949 440.896 109.006C428.545 106.1 400.755 101.225 400.755 77.8884C400.751 57.4707 421.349 47.7468 441.933 47.7468C466.635 47.7468 482.074 61.3618 483.1 78.8602H456.343C456.343 73.9992 453.269 68.1664 441.933 68.1664Z" fill="#071927"/>
<path fill-rule="evenodd" clip-rule="evenodd" d="M600.966 106.087H522.409C525.455 121.501 538.73 127.283 550.973 127.283C558.853 127.642 566.44 124.419 571.378 118.61H598.925C591.381 137.93 571.761 150.668 549.955 150.4C519.993 150.32 495.769 127.321 495.853 99.0286C495.855 98.4921 495.865 97.9574 495.886 97.419C494.888 70.1772 517.47 47.3285 546.322 46.3867C547.193 46.3584 548.065 46.3525 548.938 46.3639C576.484 46.3639 605.048 64.6691 600.966 106.091V106.087ZM524.45 85.8586H572.402C570.262 75.8965 560.707 68.9233 549.955 69.4827C538.482 68.773 527.968 75.5235 524.45 85.8586Z" fill="#071927"/>
<defs>
<linearGradient id="paint0_linear_2_123" x1="73.6406" y1="16.2836" x2="73.6406" y2="154.937" gradientUnits="userSpaceOnUse">
<stop stop-color="#B3F9BA"/>
<stop offset="1" stop-color="#F6FB8C"/>
</linearGradient>
<linearGradient id="paint1_linear_2_123" x1="73.8332" y1="16.3904" x2="73.8332" y2="151.747" gradientUnits="userSpaceOnUse">
<stop stop-color="#B1FFBF"/>
<stop offset="1" stop-color="#FFF16D"/>
</linearGradient>
<linearGradient id="paint2_linear_2_123" x1="73.8332" y1="11.6782" x2="73.8332" y2="152.14" gradientUnits="userSpaceOnUse">
<stop stop-color="#B3F9BA"/>
<stop offset="1" stop-color="#F6FB8C"/>
</linearGradient>
</defs>
</svg>
