<svg width="602" height="156" viewBox="0 0 602 156" fill="none" xmlns="http://www.w3.org/2000/svg">
<mask id="mask0_15_2" style="mask-type:alpha" maskUnits="userSpaceOnUse" x="0" y="102" width="147" height="54">
<path d="M0.565979 102.482H146.714V155.304H0.565979V102.482Z" fill="white"/>
</mask>
<g mask="url(#mask0_15_2)">
<path fill-rule="evenodd" clip-rule="evenodd" d="M73.4987 129.366C68.349 129.366 63.5634 128.344 59.6574 126.411L17.5961 105.591L4.99237 112.762C-0.998559 116.169 -0.893914 121.392 5.22581 124.422L63.4004 153.219C66.2259 154.616 69.8381 155.305 73.4987 155.305C77.773 155.305 82.1098 154.368 85.3377 152.533L142.289 120.131C148.28 116.722 148.175 111.499 142.055 108.471L129.961 102.482L89.4973 125.504C85.1183 127.994 79.4373 129.366 73.4987 129.366Z" fill="#071927"/>
</g>
<path fill-rule="evenodd" clip-rule="evenodd" d="M141.378 74.1001L131.385 69L108.114 82.648L104.119 84.9906L100.126 87.3331L89.2326 93.7227C84.888 96.2728 79.2497 97.6748 73.3597 97.6748C68.2505 97.6748 63.5026 96.6296 59.6272 94.6535L47.1465 88.2833L43.0156 86.1773L38.8846 84.0694L15.8879 72.3315L5.39185 78.4885C-0.55199 81.9751 -0.450164 87.3157 5.62146 90.4145L17.623 96.5384L21.7539 98.6463L25.8828 100.754L63.3408 119.869C66.1421 121.298 69.7279 122 73.3597 122C77.5985 122 81.9031 121.044 85.1037 119.167L121.116 98.0452L125.111 95.7026L129.104 93.3601L141.609 86.0261C147.553 82.5414 147.449 77.1989 141.378 74.1001Z" fill="#071927"/>
<path fill-rule="evenodd" clip-rule="evenodd" d="M141.378 43.1998L83.6581 15.0395C80.8569 13.6712 77.273 13 73.6393 13C69.4005 13 65.0958 13.9159 61.8953 15.7107L5.39185 47.3975C-0.55199 50.7293 -0.450164 55.8355 5.62146 58.7984L15.6144 63.6747L19.7453 65.6901L23.8763 67.7055L46.873 78.9266L51.0039 80.9402L55.1349 82.9575L63.3408 86.9623C66.1421 88.3288 69.7279 89 73.3597 89C77.5985 89 81.9031 88.0841 85.1037 86.2893L91.8641 82.4976L95.8593 80.2579L99.8525 78.0181L123.123 64.9689L127.118 62.7291L131.111 60.4893L141.609 54.6025C147.553 51.2707 147.449 46.1626 141.378 43.1998Z" fill="#071927"/>
<mask id="mask1_15_2" style="mask-type:alpha" maskUnits="userSpaceOnUse" x="189" y="0" width="84" height="151">
<path d="M189.142 0.638428H272.569V150.344H189.142V0.638428Z" fill="#071927"/>
</mask>
<g mask="url(#mask1_15_2)">
<path fill-rule="evenodd" clip-rule="evenodd" d="M249.914 23.8284C242.255 23.5423 235.801 29.1293 235.496 36.3111C235.496 36.3359 235.494 36.3569 235.494 36.3816V48.9368H266.392V70.1863H235.494V150.345H207.681V70.1863H189.143V48.9368H207.681V34.4341C207.681 14.1536 226.222 0.64658 246.82 0.64658C256.255 0.457738 265.43 3.55551 272.57 9.33905L262.27 27.6873C258.564 25.4421 254.312 24.1107 249.91 23.8227" fill="#071927"/>
</g>
<path fill-rule="evenodd" clip-rule="evenodd" d="M386 47V149.025H364.584L360.501 137.368H357.455C353.374 142.226 344.198 150 325.838 150C297.281 150 283 130.565 283 102.385V47H312.589V95.582C312.589 108.214 313.606 125.704 331.97 125.704C341.15 125.704 356.45 120.845 356.45 94.6148V47H386Z" fill="#071927"/>
<path fill-rule="evenodd" clip-rule="evenodd" d="M441.538 68.6069C432.214 68.6069 428.074 72.5318 428.074 77.4412C428.074 84.3122 437.398 86.2736 444.645 88.2331C464.324 92.1599 484 98.0462 484 119.632C484 141.22 465.359 153 442.571 153C417.713 153 398.037 138.279 397 116.69H423.926C424.944 125.551 433.186 132.056 442.567 131.408C453.959 131.408 456.031 125.522 456.031 121.597C456.031 113.746 448.781 111.782 440.495 109.821C428.066 106.888 400.101 101.969 400.101 78.4181C400.097 57.8131 420.825 48 441.538 48C466.396 48 481.932 61.7399 482.965 79.3988H456.039C456.039 74.4932 452.946 68.6069 441.538 68.6069Z" fill="#071927"/>
<path fill-rule="evenodd" clip-rule="evenodd" d="M601.607 105.703H522.68C525.741 121.109 539.078 126.889 551.379 126.889C559.296 127.248 566.918 124.027 571.88 118.221H599.556C591.976 137.531 572.265 150.264 550.356 149.996C520.253 149.916 495.915 126.927 496 98.6473C496.002 98.111 496.013 97.5766 496.033 97.0383C495.031 69.8084 517.718 46.9697 546.706 46.0283C547.581 46 548.457 45.9941 549.334 46.0055C577.01 46.0055 605.708 64.3027 601.607 105.707V105.703ZM524.731 85.483H572.908C570.758 75.5252 561.159 68.5551 550.356 69.1142C538.829 68.4049 528.266 75.1524 524.731 85.483Z" fill="#071927"/>
</svg>
